/* XPM */
static char * up_arrow_xpm[] = {
"9 15 2 1",
"   c None",
".  c #626262",
"         ",
"         ",
"    .    ",
"   ...   ",
"  .....  ",
" ....... ",
"   ...   ",
"   ...   ",
"   ...   ",
"   ...   ",
"   ...   ",
"         ",
"         ",
"         ",
"         "};
